<?xml version="1.0" standalone="no"?>
<!DOCTYPE svg PUBLIC "-//W3C//DTD SVG 20010904//EN"
 "http://www.w3.org/TR/2001/REC-SVG-20010904/DTD/svg10.dtd">
<svg version="1.0" xmlns="http://www.w3.org/2000/svg"
 width="1000.000000pt" height="1000.000000pt" viewBox="0 0 1000.000000 1000.000000"
 preserveAspectRatio="xMidYMid meet">

<g transform="translate(0.000000,1000.000000) scale(0.100000,-0.100000)"
fill="#000000" stroke="none">
<path d="M4720 8793 c-609 -59 -1083 -201 -1560 -466 -316 -175 -559 -357
-818 -611 -214 -210 -364 -391 -525 -636 -343 -523 -552 -1121 -608 -1743 -15
-166 -6 -607 16 -787 112 -925 558 -1776 1250 -2389 148 -131 224 -190 390
-303 456 -311 965 -515 1502 -603 243 -40 344 -47 633 -47 435 0 769 52 1161
177 1036 333 1889 1109 2327 2115 304 700 383 1467 231 2247 -112 576 -362
1119 -741 1608 -109 142 -460 497 -598 606 -602 477 -1279 752 -2029 824 -137
13 -528 18 -631 8z m645 -173 c866 -97 1609 -452 2216 -1059 626 -627 986
-1407 1060 -2296 14 -173 6 -565 -16 -725 -63 -470 -194 -879 -406 -1275 -500
-929 -1380 -1598 -2407 -1830 -412 -93 -872 -110 -1307 -50 -1050 147 -2004
767 -2579 1675 -196 308 -360 687 -446 1028 -66 264 -95 453 -111 742 -83
1414 704 2767 1986 3416 434 219 900 347 1398 384 133 10 485 4 612 -10z"/>
<path d="M4810 7979 c-114 -16 -232 -40 -320 -66 -165 -48 -331 -144 -391
-225 -27 -36 -176 -282 -203 -335 -24 -48 -21 -118 9 -168 36 -62 79 -80 190
-79 84 1 138 13 235 52 14 6 50 20 80 32 127 51 181 78 248 122 24 15 45 28
48 28 13 0 93 83 141 148 75 100 83 104 190 99 108 -5 158 -18 244 -63 121
-64 221 -170 293 -310 48 -95 64 -231 47 -404 -13 -140 -59 -330 -91 -375 -4
-5 -11 -20 -15 -33 -13 -42 -109 -205 -172 -291 -64 -87 -237 -270 -327 -345
-73 -61 -201 -148 -271 -185 -78 -41 -89 -47 -160 -102 -65 -50 -101 -65 -182
-75 -51 -6 -53 -6 -53 18 0 14 11 38 25 54 28 32 32 43 39 126 12 149 -41 40
-105 -215 -15 -61 -7 -216 16 -282 30 -91 94 -210 144 -268 42 -50 124 -129
225 -217 82 -70 256 -233 256 -238 0 -4 15 -23 33 -42 77 -82 187 -265 208
-345 39 -149 53 -245 46 -302 -18 -135 -28 -177 -56 -236 -102 -215 -247 -341
-476 -418 -62 -20 -89 -23 -225 -23 -135 0 -164 3 -225 24 -96 31 -171 69
-276 140 -50 33 -92 60 -95 60 -12 0 60 -91 117 -149 100 -100 220 -176 319
-203 182 -50 299 -58 466 -33 191 29 431 149 555 277 43 46 116 139 137 176
39 70 92 182 92 197 0 9 6 37 14 63 77 259 32 562 -122 822 -73 123 -232 301
-363 406 -166 133 -249 240 -249 323 0 34 9 52 62 118 73 92 246 267 408 413
288 259 501 492 626 686 51 80 138 257 153 314 54 205 64 267 58 394 -9 217
-61 366 -183 529 -164 219 -384 348 -684 402 -84 16 -377 18 -480 4z m-322
-371 c15 -15 16 -102 2 -129 -14 -25 -82 -59 -120 -59 -20 0 -40 9 -56 25 -21
21 -24 31 -19 58 9 39 19 52 69 89 42 30 102 38 124 16z"/>
<path d="M4972 7458 c-17 -17 -15 -55 4 -62 45 -17 152 -18 209 -1 l60 17 -30
16 c-33 17 -152 42 -200 42 -17 0 -36 -5 -43 -12z"/>
<path d="M5340 7263 c-87 -39 -115 -44 -249 -44 -79 0 -113 5 -176 26 -65 22
-82 25 -100 15 -18 -10 -21 -17 -15 -39 5 -14 12 -39 17 -56 12 -44 69 -69
203 -90 110 -18 117 -18 224 0 118 19 206 56 206 84 0 26 -50 121 -63 120 -7
0 -28 -7 -47 -16z"/>
<path d="M4589 7132 c-129 -62 -316 -132 -353 -132 -23 0 -29 -41 -22 -133 15
-170 93 -385 214 -585 31 -52 62 -104 69 -116 7 -11 30 -41 52 -66 33 -38 42
-43 57 -34 22 13 110 172 118 212 6 30 0 79 -38 297 -26 143 -26 161 -20 373
4 122 5 222 3 221 -2 0 -38 -17 -80 -37z"/>
<path d="M3916 6970 c-20 -34 -36 -65 -36 -69 0 -4 -30 -40 -66 -81 -62 -68
-65 -74 -48 -87 16 -12 17 -17 5 -46 -7 -17 -16 -45 -19 -61 -4 -27 -4 -28 15
-15 22 15 77 79 104 119 21 32 33 21 60 -55 23 -64 39 -83 39 -45 0 21 24 27
50 11 27 -18 30 1 7 47 -13 26 -30 60 -38 76 -16 34 -17 149 -2 168 7 7 13 31
15 53 3 37 1 40 -24 43 -23 3 -31 -5 -62 -58z"/>
<path d="M4798 6917 c11 -123 40 -145 237 -178 64 -11 228 -5 279 10 183 54
188 59 184 155 l-3 66 -40 -19 c-128 -60 -309 -86 -422 -60 -92 21 -168 43
-178 50 -6 4 -22 12 -36 18 l-26 9 5 -51z"/>
<path d="M4802 6618 c3 -7 13 -38 24 -68 26 -75 55 -102 136 -123 128 -33 372
-14 417 33 25 26 51 76 51 98 0 12 5 24 10 27 13 8 13 25 -1 25 -5 0 -31 -9
-56 -21 -25 -11 -76 -25 -112 -31 -79 -13 -264 -5 -306 12 -16 7 -39 16 -50
20 -11 4 -37 15 -58 24 -45 19 -61 20 -55 4z"/>
<path d="M4880 6201 c3 -44 7 -81 10 -84 11 -10 102 -27 142 -27 96 0 143 26
215 118 31 39 27 46 -16 31 -20 -7 -81 -10 -159 -7 -112 3 -132 6 -159 26 -17
12 -33 22 -35 22 -1 0 -1 -36 2 -79z"/>
<path d="M4674 5962 c-7 -4 -21 -24 -32 -44 -18 -31 -19 -37 -6 -40 13 -2 12
-7 -5 -25 -14 -15 -17 -24 -10 -29 6 -3 15 0 21 7 7 12 8 11 7 -1 -1 -8 1 -23
5 -32 6 -14 18 -16 79 -11 40 3 81 12 92 19 11 8 27 14 36 14 10 0 19 3 21 8
2 4 23 23 48 42 85 66 88 72 24 61 -64 -12 -157 -4 -213 19 -59 23 -53 22 -67
12z"/>
<path d="M6515 5932 c-11 -2 -29 -7 -40 -11 -11 -5 -51 -18 -90 -29 -96 -28
-246 -83 -330 -122 -38 -17 -86 -39 -105 -47 -19 -8 -51 -23 -70 -32 -40 -19
-283 -161 -290 -170 -3 -3 -50 -40 -105 -81 -171 -128 -413 -387 -398 -426 2
-7 21 -25 41 -41 54 -40 95 -77 205 -183 54 -52 102 -96 106 -98 3 -1 34 18
68 43 109 79 205 137 335 202 70 34 131 63 136 63 5 0 23 7 38 15 16 8 37 15
46 15 9 0 19 4 22 9 3 5 16 11 28 14 13 3 61 17 108 32 147 47 240 67 443 98
164 24 165 25 128 96 -10 20 -27 56 -36 81 -10 25 -23 59 -30 75 -7 17 -29 75
-50 130 -21 55 -41 109 -46 120 -22 52 -87 222 -90 235 -2 9 -12 14 -24 12z"/>
<path d="M3482 5897 c-7 -18 -12 -39 -12 -46 0 -7 -12 -38 -26 -69 -23 -51
-36 -79 -64 -147 -4 -11 -17 -41 -29 -67 -12 -26 -21 -50 -21 -54 0 -3 -11
-30 -25 -61 -14 -30 -39 -94 -55 -141 -17 -46 -35 -91 -41 -98 -9 -11 -8 -14
2 -14 74 -3 227 -21 279 -33 36 -9 99 -23 140 -32 100 -23 159 -41 255 -77
136 -52 211 -86 314 -143 25 -14 47 -23 49 -20 3 2 -9 33 -25 67 -55 115 -65
168 -65 338 l0 155 40 100 40 100 -57 27 c-31 15 -81 37 -111 49 -30 12 -80
33 -110 47 -30 13 -84 35 -120 49 -36 14 -78 30 -95 37 -16 8 -57 21 -90 31
-33 10 -70 22 -83 26 -13 5 -35 9 -50 9 -23 0 -30 -7 -40 -33z"/>
<path d="M3079 5520 c-37 -15 -86 -31 -109 -35 -34 -6 -44 -13 -55 -38 -7 -18
-20 -48 -29 -69 -9 -20 -16 -41 -16 -47 0 -6 -16 -45 -35 -87 -19 -41 -35 -80
-35 -85 0 -5 -4 -17 -10 -27 -8 -15 -81 -188 -100 -237 -4 -11 -24 -65 -45
-120 -21 -55 -43 -113 -50 -130 -7 -16 -23 -55 -35 -85 -12 -30 -28 -68 -35
-85 -7 -16 -27 -66 -45 -110 -37 -93 -53 -131 -113 -277 -29 -71 -40 -108 -32
-108 7 0 39 12 71 26 199 89 422 163 568 189 50 8 111 20 136 26 70 16 413 23
510 10 212 -28 232 -32 440 -91 159 -45 389 -146 519 -228 130 -82 322 -258
403 -369 34 -46 48 -59 57 -50 15 15 14 44 -2 54 -7 4 -39 49 -72 98 -32 50
-61 92 -64 95 -4 3 -20 25 -36 50 -40 59 -205 225 -280 281 -108 80 -300 188
-410 230 -313 119 -599 179 -854 179 -141 0 -248 -15 -396 -55 -183 -50 -188
-49 -170 22 7 26 32 100 55 163 23 63 56 156 74 205 18 50 38 104 45 120 6 17
16 44 22 60 15 42 23 61 53 131 14 34 26 65 26 69 0 7 25 68 41 97 5 10 9 23
9 28 0 6 9 30 19 53 29 64 71 166 71 172 0 10 -26 3 -91 -25z"/>
<path d="M6850 5542 c0 -10 144 -379 186 -473 13 -31 24 -63 24 -71 0 -8 4
-18 8 -24 4 -5 14 -27 21 -49 7 -22 19 -53 26 -70 18 -41 110 -295 148 -409
23 -67 11 -81 -45 -52 -64 33 -306 83 -448 91 -241 14 -656 -69 -915 -184 -81
-37 -136 -65 -142 -74 -9 -15 30 -167 44 -167 6 0 38 11 70 24 202 84 339 120
563 147 103 13 498 6 560 -9 25 -6 77 -18 115 -27 118 -26 465 -143 548 -184
82 -42 89 -39 63 21 -8 18 -22 53 -31 78 -21 54 -40 100 -67 160 -41 94 -47
106 -61 140 -9 19 -22 53 -30 75 -30 85 -130 342 -147 380 -28 64 -102 247
-169 420 -34 88 -66 169 -70 180 -6 14 -25 24 -62 33 -62 14 -146 37 -171 47
-10 4 -18 3 -18 -3z"/>
<path d="M3126 5052 c-3 -5 -13 -36 -22 -68 -22 -80 -39 -135 -49 -159 -31
-78 -55 -143 -55 -150 0 -5 -7 -17 -17 -27 -9 -10 -14 -20 -11 -23 3 -3 43 0
89 6 198 26 406 21 589 -13 30 -6 71 -12 90 -15 19 -2 60 -11 90 -19 139 -39
197 -57 228 -70 18 -8 41 -14 50 -14 10 0 22 -4 27 -8 6 -5 44 -21 85 -37 41
-15 84 -34 95 -42 11 -7 27 -13 36 -13 10 0 19 -3 21 -7 2 -5 25 -19 53 -33
27 -14 95 -55 150 -91 121 -81 298 -259 394 -396 36 -51 67 -93 71 -93 7 0 30
74 30 97 0 18 -14 67 -38 128 -55 140 -357 463 -546 582 -21 14 -86 49 -145
79 -58 30 -113 59 -121 64 -47 30 -144 80 -156 80 -8 0 -22 5 -32 10 -25 15
-197 79 -272 101 -36 11 -74 24 -85 29 -11 5 -40 13 -65 19 -25 5 -63 15 -85
20 -43 12 -116 24 -265 45 -52 8 -102 17 -111 21 -10 3 -20 2 -23 -3z"/>
<path d="M6720 5030 c-25 -5 -70 -14 -100 -19 -212 -39 -305 -64 -495 -131
-122 -43 -279 -120 -410 -199 -173 -106 -197 -130 -160 -161 9 -7 32 -42 51
-77 20 -34 39 -63 43 -63 4 0 41 17 82 38 66 34 101 49 229 97 19 7 62 21 95
30 33 9 89 25 125 35 80 23 203 45 336 61 95 11 238 9 432 -7 72 -6 72 -6 72
19 0 28 -44 167 -65 206 -7 14 -27 60 -44 101 l-30 75 -58 2 c-32 0 -78 -3
-103 -7z"/>
<path d="M3300 4080 c-41 -5 -122 -13 -180 -19 -170 -17 -241 -33 -471 -107
-125 -39 -176 -59 -282 -108 -43 -20 -82 -36 -86 -36 -17 0 -50 -49 -71 -105
-12 -33 -35 -89 -51 -124 -16 -35 -27 -66 -25 -69 3 -2 63 19 133 48 190 78
211 86 293 110 41 12 86 25 100 30 27 9 111 26 295 62 109 21 147 23 410 23
261 -1 301 -3 395 -23 101 -22 304 -76 345 -92 11 -5 54 -21 95 -36 81 -29
270 -124 363 -183 53 -33 194 -135 207 -150 3 -3 20 -19 37 -35 l32 -28 65 58
c36 31 66 64 66 71 0 27 -267 282 -380 364 -44 31 -172 105 -266 152 -96 48
-349 131 -494 161 -165 34 -400 50 -530 36z"/>
<path d="M6415 4079 c-33 -5 -91 -13 -130 -18 -142 -20 -320 -72 -476 -140
l-46 -20 -6 -98 c-4 -54 -10 -119 -13 -145 -6 -43 -5 -48 13 -48 11 0 45 11
74 24 98 43 251 90 414 127 93 22 122 23 410 23 281 0 320 -2 415 -22 179 -38
211 -45 335 -76 60 -14 223 -68 260 -85 57 -27 193 -84 218 -91 l28 -9 -25 47
c-24 46 -47 95 -80 177 -18 41 -53 85 -69 85 -5 0 -48 20 -95 44 -48 24 -118
53 -157 65 -38 13 -78 27 -87 32 -10 5 -23 9 -29 9 -6 0 -25 6 -42 14 -79 33
-226 69 -362 86 -38 5 -99 14 -135 19 -77 12 -330 12 -415 0z"/>
<path d="M5083 3651 c-18 -58 -16 -84 3 -48 8 15 14 42 12 58 -3 31 -3 30 -15
-10z"/>
<path d="M5005 2810 c3 -5 17 -10 30 -10 13 0 27 5 30 10 4 6 -8 10 -30 10
-22 0 -34 -4 -30 -10z"/>
</g>
</svg>
